<svg xmlns="http://www.w3.org/2000/svg" viewBox="0 0 420 290" role="img" aria-label="RMIRA ADV">
  <g fill="#FFFFFF">

    <!-- ═══ MARK — LEFT GROUP (R) ═══ -->
    <polygon points="52,18 80,18 80,175 52,175"/>
    <polygon points="80,18 136,18 136,30 108,78 80,78"/>
    <polygon points="80,78 108,78 90,104"/>
    <polygon points="90,116 80,132 80,175 114,175 98,140"/>

    <!-- ═══ MARK — RIGHT GROUP (M / bowtie) ═══ -->
    <polygon points="152,18 198,18 152,96"/>
    <polygon points="198,18 244,18 244,64 198,96"/>
    <polygon points="152,108 198,108 152,175"/>
    <polygon points="198,108 244,64 244,175 198,175"/>

  </g>

  <!-- ═══ WORDMARK ═══ -->
  <text x="52" y="238"
        font-family="Georgia, 'Times New Roman', serif"
        font-size="72" font-weight="400"
        fill="#FFFFFF" letter-spacing="3">RMIRA</text>

  <text x="278" y="238"
        font-family="'Courier New', Courier, monospace"
        font-size="22" font-weight="400"
        fill="#FFFFFF" letter-spacing="5">ADV</text>

  <line x1="337" y1="210" x2="337" y2="244" stroke="rgba(255,255,255,0.5)" stroke-width="1"/>

  <text x="347" y="220" font-family="'Courier New', Courier, monospace" font-size="9" fill="rgba(255,255,255,0.7)" letter-spacing="2">ADVISORY</text>
  <text x="347" y="232" font-family="'Courier New', Courier, monospace" font-size="9" fill="rgba(255,255,255,0.7)" letter-spacing="2">ADVOCACY</text>
  <text x="347" y="244" font-family="'Courier New', Courier, monospace" font-size="9" fill="rgba(255,255,255,0.7)" letter-spacing="2">ADVANCE</text>
</svg>
